<?xml version="1.0" standalone="no"?>
<!DOCTYPE svg PUBLIC "-//W3C//DTD SVG 20010904//EN"
 "http://www.w3.org/TR/2001/REC-SVG-20010904/DTD/svg10.dtd">
<svg version="1.0" xmlns="http://www.w3.org/2000/svg"
 width="612.000000pt" height="612.000000pt" viewBox="0 0 612.000000 612.000000"
 preserveAspectRatio="xMidYMid meet">
<metadata>
Created by potrace 1.11, written by Peter Selinger 2001-2013
</metadata>
<g transform="translate(0.000000,612.000000) scale(0.100000,-0.100000)"
fill="#000000" stroke="none">
<path d="M2450 4275 c-1 -179 -1 -379 -1 -446 0 -67 2 -123 4 -126 3 -2 188
-4 411 -3 l406 1 0 -583 c-1 -400 -5 -598 -13 -632 l-11 -49 -13 34 -13 34 6
-34 c4 -23 3 -31 -5 -27 -8 5 -7 -1 1 -19 12 -26 10 -29 -31 -64 -27 -23 -38
-38 -28 -38 9 0 13 5 10 10 -3 6 -1 7 5 3 17 -11 15 -14 -20 -36 -23 -14 -31
-26 -32 -49 -1 -19 2 -27 9 -21 14 15 38 12 29 -2 -4 -7 2 -5 14 6 12 10 28
16 35 13 8 -3 19 -1 23 3 5 5 18 11 29 13 11 1 26 6 33 11 7 4 16 6 18 3 3 -3
14 2 23 11 36 34 61 52 61 43 0 -5 7 -12 16 -15 14 -5 15 -4 5 8 -9 11 -8 15
5 20 9 3 14 13 10 21 -3 8 3 20 12 27 9 7 18 21 20 30 1 10 10 34 19 55 9 21
17 52 18 68 1 17 3 336 4 710 l2 680 -33 6 c-18 4 -27 7 -19 8 8 0 11 4 8 7
-4 4 -13 2 -20 -5 -11 -8 -116 -11 -383 -9 l-369 3 -3 208 -2 207 620 0 620 0
0 -937 c-1 -516 -5 -956 -10 -978 -13 -60 -34 -115 -43 -115 -5 0 -5 -4 -2
-10 10 -16 -18 -47 -40 -44 -20 3 -20 3 -1 -12 18 -13 15 -19 -7 -15 -5 1 -6
-3 -3 -8 10 -15 -5 -43 -20 -37 -8 3 -11 0 -8 -8 3 -7 -22 -35 -54 -63 -49
-43 -61 -49 -78 -40 -16 9 -17 9 -6 -5 11 -13 6 -18 -30 -35 -78 -37 -115 -45
-213 -51 -84 -4 -189 13 -179 29 3 6 -5 7 -22 3 -21 -5 -25 -4 -19 6 5 8 4 11
-3 6 -23 -14 -187 96 -187 127 0 6 -10 16 -21 21 -12 5 -36 34 -54 63 -26 44
-29 57 -19 69 10 12 10 17 -1 27 -9 9 -11 9 -6 0 3 -6 2 -14 -3 -18 -6 -3 -18
18 -27 47 -14 43 -18 101 -22 300 l-4 248 -186 2 c-103 2 -305 2 -449 0 l-263
-3 0 -247 c0 -136 4 -264 9 -284 5 -22 5 -38 0 -38 -5 0 -9 7 -9 16 0 8 -4 12
-10 9 -5 -3 -10 -13 -10 -21 0 -8 4 -13 9 -9 13 7 41 -22 42 -46 2 -24 3 -27
21 -68 9 -19 14 -41 11 -48 -3 -8 0 -13 8 -11 9 2 13 -4 11 -16 -2 -11 1 -15
7 -11 6 3 11 1 11 -4 0 -23 2 -27 20 -46 10 -11 19 -24 20 -30 1 -5 4 -12 7
-15 4 -3 3 2 -1 10 -4 8 1 4 11 -10 10 -14 33 -41 53 -59 19 -19 28 -30 19
-23 -12 9 -16 9 -16 -3 0 -7 4 -13 8 -12 13 3 69 -37 69 -49 0 -6 8 -18 17
-25 11 -10 14 -10 9 -1 -11 19 8 14 32 -8 12 -12 22 -17 22 -13 0 4 7 0 14
-10 8 -10 18 -18 23 -18 20 2 43 -11 37 -21 -4 -6 -2 -8 3 -5 9 6 83 -15 143
-39 19 -8 57 -12 157 -17 44 -3 86 -8 92 -11 6 -4 11 -2 11 3 0 6 17 11 37 11
50 0 30 17 -27 23 -73 8 -265 81 -255 97 3 5 0 12 -6 16 -8 4 -9 3 -5 -4 4 -7
3 -12 -2 -12 -17 0 -22 13 -9 29 10 14 10 14 -4 3 -24 -19 -50 -5 -45 24 3 14
1 22 -5 19 -5 -4 -7 -11 -4 -16 15 -23 -15 -4 -65 42 -30 28 -49 48 -42 44 6
-3 12 -1 12 4 0 6 -8 11 -17 11 -18 1 -63 61 -63 85 0 7 -7 16 -15 19 -13 5
-14 10 -4 28 11 20 10 21 -3 10 -13 -10 -17 -10 -22 3 -4 11 -2 14 7 10 6 -4
5 -1 -4 7 -16 13 -43 78 -32 78 3 0 1 6 -5 13 -19 22 -32 129 -32 259 l0 128
211 0 212 0 -5 -137 c-3 -76 -2 -129 3 -118 6 16 8 13 9 -15 2 -41 3 -49 24
-114 8 -27 12 -54 9 -59 -3 -6 -1 -7 5 -3 11 7 17 -6 13 -28 -1 -4 6 -14 16
-21 15 -11 16 -15 3 -31 -14 -17 -14 -18 3 -5 17 13 23 7 18 -21 0 -5 3 -8 8
-8 4 0 21 -19 37 -42 34 -50 150 -168 165 -168 6 0 8 -4 5 -8 -3 -5 1 -9 8 -9
14 0 77 -42 89 -60 4 -7 15 -9 25 -6 15 6 16 5 2 -12 -14 -17 -13 -18 4 -8 13
7 30 6 60 -5 106 -38 172 -48 298 -46 77 1 135 7 149 15 17 9 24 9 27 0 2 -6
11 -11 20 -11 13 0 14 2 4 9 -10 6 -6 11 15 17 15 4 33 8 38 8 6 1 16 7 24 14
7 7 20 11 28 8 8 -3 12 -2 9 3 -5 8 46 35 59 31 4 -1 12 6 19 15 6 9 18 15 26
13 8 -2 15 3 16 10 3 26 5 27 14 12 9 -13 10 -13 10 1 0 16 50 65 63 61 4 -1
7 3 7 9 0 5 6 7 13 3 6 -4 9 -4 5 1 -11 11 12 36 26 28 6 -3 8 -3 4 2 -11 11
11 47 24 39 7 -4 8 -3 4 5 -7 11 27 64 36 55 3 -2 11 3 19 13 9 11 10 14 2 9
-17 -10 -17 -9 11 46 13 26 27 44 31 40 5 -4 5 -1 1 6 -4 7 0 24 8 37 9 14 15
25 12 25 -2 0 2 24 10 53 7 28 14 64 14 79 0 14 3 28 8 30 4 2 6 488 4 1081
l-2 1077 -860 0 -860 0 0 -325z"/>
<path d="M3466 2381 c-3 -5 1 -11 9 -14 9 -4 12 -1 8 9 -6 16 -10 17 -17 5z"/>
<path d="M3850 2310 c0 -5 5 -10 11 -10 5 0 7 5 4 10 -3 6 -8 10 -11 10 -2 0
-4 -4 -4 -10z"/>
<path d="M2946 2247 c3 -10 9 -15 12 -12 3 3 0 11 -7 18 -10 9 -11 8 -5 -6z"/>
<path d="M3187 2225 c-4 -8 -1 -17 6 -21 7 -4 9 -4 5 1 -4 4 -3 14 3 22 7 8 8
13 1 13 -5 0 -12 -7 -15 -15z"/>
<path d="M3275 2219 c-4 -6 -5 -12 -2 -15 2 -3 7 2 10 11 7 17 1 20 -8 4z"/>
<path d="M4135 2210 c-3 -5 -1 -10 4 -10 6 0 11 5 11 10 0 6 -2 10 -4 10 -3 0
-8 -4 -11 -10z"/>
<path d="M3308 2203 c7 -3 16 -2 19 1 4 3 -2 6 -13 5 -11 0 -14 -3 -6 -6z"/>
<path d="M2010 2146 c0 -2 8 -10 18 -17 15 -13 16 -12 3 4 -13 16 -21 21 -21
13z"/>
<path d="M3677 2105 c3 -8 9 -12 14 -9 12 7 11 11 -5 17 -10 4 -13 1 -9 -8z"/>
<path d="M4062 2087 c-7 -8 -6 -18 4 -31 8 -11 14 -15 14 -9 0 7 -5 15 -10 18
-8 5 -7 11 1 21 6 8 9 14 6 14 -2 0 -9 -6 -15 -13z"/>
<path d="M2340 2070 c6 -11 13 -20 16 -20 2 0 0 9 -6 20 -6 11 -13 20 -16 20
-2 0 0 -9 6 -20z"/>
<path d="M3630 2070 c-9 -6 -10 -10 -3 -10 6 0 15 5 18 10 8 12 4 12 -15 0z"/>
<path d="M2095 2031 c-3 -5 -2 -12 3 -15 5 -3 9 1 9 9 0 17 -3 19 -12 6z"/>
<path d="M2976 1838 c3 -5 10 -6 15 -3 13 9 11 12 -6 12 -8 0 -12 -4 -9 -9z"/>
<path d="M3818 1843 c6 -2 9 -10 6 -15 -4 -7 -2 -8 5 -4 13 9 5 26 -12 25 -9
0 -8 -2 1 -6z"/>
<path d="M3790 1820 c0 -5 5 -10 11 -10 5 0 7 5 4 10 -3 6 -8 10 -11 10 -2 0
-4 -4 -4 -10z"/>
<path d="M3185 1760 c11 -5 27 -9 35 -9 9 0 8 4 -5 9 -11 5 -27 9 -35 9 -9 0
-8 -4 5 -9z"/>
<path d="M2808 1723 c6 -2 18 -2 25 0 6 3 1 5 -13 5 -14 0 -19 -2 -12 -5z"/>
<path d="M2802 1258 c2 -9 -10 -13 -39 -14 -23 0 -50 -7 -59 -15 -11 -9 -15
-9 -10 -1 4 6 3 12 -3 12 -5 0 -12 -6 -14 -12 -4 -9 -6 -9 -6 1 -1 11 -5 10
-17 -5 -8 -10 -13 -14 -10 -8 3 6 -1 11 -8 11 -8 0 -12 -5 -10 -11 3 -7 -9
-11 -31 -10 -19 1 -38 -2 -41 -7 -3 -5 3 -9 13 -9 13 0 14 -3 6 -8 -10 -6 -9
-12 3 -28 10 -13 14 -14 11 -4 -3 10 2 16 14 16 14 0 15 -3 7 -13 -6 -8 -8
-16 -4 -20 3 -3 6 -1 6 5 0 7 9 12 21 12 11 0 18 -4 15 -9 -3 -5 12 -8 33 -7
22 0 37 -3 34 -8 -3 -4 4 -5 16 -1 12 4 21 2 21 -4 0 -6 5 -11 11 -11 5 0 8 4
5 8 -2 4 4 8 14 8 10 0 16 -4 14 -8 -5 -8 17 -14 74 -22 18 -2 32 0 32 6 0 7
5 7 13 1 6 -5 90 -8 187 -6 196 3 210 4 210 14 0 4 11 6 25 3 16 -3 25 0 25 8
0 10 2 10 9 0 6 -10 10 -10 21 3 9 11 16 12 25 5 9 -7 16 -6 25 5 7 8 16 12
21 9 5 -3 18 0 30 7 15 8 19 8 15 0 -4 -6 -2 -11 3 -11 6 0 11 5 11 11 0 6 7
9 15 6 8 -4 17 -2 21 4 4 6 11 6 20 -2 8 -6 14 -8 15 -3 0 5 2 20 5 33 4 21 3
22 -13 10 -11 -9 -14 -10 -9 -1 5 8 0 12 -18 12 -13 0 -27 6 -29 13 -4 10 -6
10 -6 0 -1 -7 -10 -13 -22 -13 -11 0 -17 5 -14 10 3 6 2 10 -4 10 -5 0 -13 -5
-17 -12 -5 -7 -11 -5 -21 8 -8 10 -16 18 -18 17 -3 -2 -6 -3 -7 -2 -2 1 -30 2
-63 3 -33 1 -69 7 -79 13 -13 7 -28 8 -43 2 -16 -6 -23 -5 -23 4 0 7 -3 8 -8
2 -4 -6 -59 -10 -129 -10 -68 0 -123 -3 -123 -7 0 -4 -6 -5 -13 -2 -7 2 -36 6
-64 8 -28 2 -56 6 -62 10 -7 5 -10 2 -9 -6z"/>
</g>
</svg>
